# xmcd CD database file
#
# Track frame offsets:
#	150
#	14622
#	24670
#	35297
#	47955
#	61587
#	78010
#	90677
#	103837
#	114227
#	131085
#	143487
#
# Disc length: 2057 seconds
#
# Revision: 0
# Processed by: cddbd v1.4PL0 Copyright (c) Steve Scherf et al.
# Submitted via: CDex 1.40Release
#
DISCID=9208070c
DTITLE=Sylter Shanty Chor - Seemannsgarn
DYEAR=1900
DGENRE=Country
TTITLE0=Windjammer
TTITLE1=Blow the man down
TTITLE2=A long time ago
TTITLE3=Seemannsgarn
TTITLE4=Roll the cotton down
TTITLE5=Rio Grande
TTITLE6=Hamburger Veermaster
TTITLE7=Sonne ueber Sylt
TTITLE8=Baltimore
TTITLE9=Shenandoah
TTITLE10=Rolling Home
TTITLE11=Farewell
EXTD=ID3G: 2
EXTT0=
EXTT1=
EXTT2=
EXTT3=
EXTT4=
EXTT5=
EXTT6=
EXTT7=
EXTT8=
EXTT9=
EXTT10=
EXTT11=
PLAYORDER=
